<?xml version="1.0" encoding="UTF-8"?>
<svg id="Layer_1" data-name="Layer 1" xmlns="http://www.w3.org/2000/svg" viewBox="0 0 237.05 73.85">
  <defs>
    <style>
      .cls-1 {
        fill: #231f20;
      }
    </style>
  </defs>
  <path class="cls-1" d="M82.93,30.21c-2.11-1.82-5.14-2.73-9.08-2.73-3.53,0-5.33.43-7.02.97-.18.06-.25.29-.13.45l3.31,4.2c.19.25.51.33.82.25.7-.2,1.49-.29,2.36-.29,1.56,0,2.77.36,3.64,1.08.87.72,1.31,1.95,1.31,3.69v1.14c-4.65.12-8.78,1.03-12.4,2.73-3.62,1.71-5.43,4.46-5.43,8.25,0,2.63.81,4.71,2.42,6.24,1.61,1.53,3.97,2.29,7.08,2.29,1.31,0,2.74-.25,4.31-.75,1.56-.51,2.9-1.3,4.02-2.38v.85c0,1.14.52,1.71,1.55,1.71h4.69c1.15,0,1.72-.57,1.72-1.71v-17.94c0-3.54-1.06-6.23-3.17-8.05ZM78.14,50.63c-1.12.99-2.13,1.61-3.04,1.88-.91.26-1.85.4-2.82.4-.7,0-1.34-.12-1.9-.34-.57-.23-.99-.59-1.25-1.07-.27-.48-.4-1.06-.4-1.72,0-.84.23-1.56.69-2.16.47-.61,1.24-1.2,2.32-1.77,1.08-.57,3.21-1.03,6.4-1.39v6.17Z"/>
  <path class="cls-1" d="M96.32,57.96c-1.14,0-1.71-.57-1.71-1.71V17.65c0-1.14.57-1.71,1.71-1.71h4.55c1.14,0,1.71.57,1.71,1.71v20.93c0,.76-.04,1.52-.12,2.28h.12l9.03-11.62c.61-.78,1.35-1.17,2.22-1.17h4.67c1.74,0,2.05.69.9,2.08l-8.49,10.24,9.87,15.45c.9,1.42.6,2.13-.9,2.13h-4.87c-.95,0-1.71-.47-2.27-1.42l-6.01-9.99-4.15,3.9v5.81c0,1.14-.57,1.71-1.71,1.71h-4.55Z"/>
  <path class="cls-1" d="M128.74,57.96c-1.14,0-1.71-.57-1.71-1.71v-26.48c0-1.14.57-1.71,1.71-1.71h4.55c1.14,0,1.71.57,1.71,1.71v26.48c0,1.14-.57,1.71-1.71,1.71h-4.55Z"/>
  <path class="cls-1" d="M145.91,57.96c-1.14,0-1.71-.57-1.71-1.71V22.63c0-.85.2-1.63.6-2.33l2.19-3.84c.42-.72.91-1.08,1.48-1.08h1.99c1.14,0,1.71.57,1.71,1.71v39.18c0,1.14-.57,1.71-1.71,1.71h-4.55Z"/>
  <path class="cls-1" d="M163.09,28.07h4.56c.94,0,1.71.77,1.71,1.71v26.48c0,.94-.77,1.71-1.71,1.71h-4.56c-.94,0-1.71-.77-1.71-1.71v-26.48c0-.94.77-1.71,1.71-1.71Z"/>
  <path class="cls-1" d="M180.25,57.96c-1.13,0-1.7-.57-1.7-1.71v-26.48c0-1.14.57-1.71,1.71-1.71h4.5c1.14,0,1.71.57,1.71,1.71v1.65c.57-1.21,1.53-2.17,2.88-2.88,1.35-.7,2.61-1.05,3.79-1.05,2.35,0,4.17.4,5.48,1.22,1.3.81,2.2,1.72,2.69,2.71h.12c1.68-1.64,3.2-2.7,4.56-3.19,1.36-.49,3.1-.74,5.23-.74,2.86,0,5.27.93,7.23,2.79,1.96,1.86,2.94,5.26,2.94,10.19v15.77c0,1.14-.57,1.71-1.71,1.71h-4.56c-1.14,0-1.71-.57-1.71-1.71v-13.72c0-4.14-.29-6.75-.87-7.83-.58-1.08-1.61-1.62-3.09-1.62-1.38,0-2.64.78-3.78,2.34-1.14,1.56-1.71,4.76-1.71,9.62v11.22c0,1.14-.57,1.71-1.71,1.71h-4.56c-1.14,0-1.71-.57-1.71-1.71v-13.72c0-4.14-.29-6.75-.88-7.83-.58-1.08-1.62-1.62-3.11-1.62-1.39,0-2.65.77-3.8,2.32s-1.72,4.76-1.72,9.64v11.22c0,1.14-.57,1.71-1.7,1.71h-4.52Z"/>
  <g>
    <path class="cls-1" d="M59.47,16.48l-18.81,27.31c-1.05,1.35-4.4,1.24-5.46-.18l-18.69-27.12c-.27-.39-.83-.18-.83.31v10.83c0,.51.15,1,.43,1.41l19.22,27.89v-11.15c1.21.69,3.85.99,5.24.03-2.24,1.32-5.24,3.78-5.24,11.11,1.06,1.42,4.28,1.35,5.34,0l19.22-27.89c.28-.4.43-.9.43-1.41v-10.83c0-.49-.56-.7-.83-.31Z"/>
    <path class="cls-1" d="M35.89,42.96l-14.22-25.68c-.08-.14-.24-.19-.38-.12l-1.32.77,15.6,25.23.32-.21Z"/>
    <path class="cls-1" d="M36.49,43.15l.32-.16-12.11-27.44c-.07-.16-.25-.22-.39-.14l-1.07.62c-.14.08-.2.28-.12.44l13.36,26.69Z"/>
    <path class="cls-1" d="M40.42,43.17l15.6-25.23-1.32-.77c-.13-.08-.3-.03-.38.12l-14.22,25.68.32.21Z"/>
    <path class="cls-1" d="M52.86,16.46c.08-.16.03-.35-.12-.44l-1.07-.62c-.14-.08-.32-.02-.39.14l-12.11,27.44.32.16,13.36-26.69Z"/>
  </g>
  <path class="cls-1" d="M178.3,15.37h-6.7c-.46,0-.85.34-.91.8l-1.1,8.47,4.06-1.9,2.95,1.9,3.45-8.48c.15-.38-.12-.79-.53-.79h-1.22Z"/>
  <path class="cls-1" d="M136.04,15.37h-6.7c-.46,0-.85.34-.91.8l-1.03,7.94c-.04.28.18.53.47.53h5.9c.35,0,.66-.21.79-.53l3.24-7.95c.15-.38-.12-.79-.53-.79h-1.22Z"/>
</svg>