<?xml version="1.0" encoding="UTF-8"?>
<svg id="Layer_1" data-name="Layer 1" xmlns="http://www.w3.org/2000/svg" viewBox="0 0 122.12 116.55">
  <defs>
    <style>
      .cls-1 {
        fill: #2f74b3;
      }
    </style>
  </defs>
  <path class="cls-1" d="M110.93,11.41l-43.68,63.39c-2.44,3.13-10.21,2.88-12.68-.42L11.19,11.41c-.62-.91-1.93-.42-1.93.72v25.15c0,1.18.35,2.33,1,3.27l44.61,64.74.02-25.88c2.79,1.59,8.91,2.29,12.16.08-5.21,3.06-12.18,8.78-12.18,25.8,2.47,3.31,9.94,3.13,12.39,0l44.61-64.74c.65-.94,1-2.09,1-3.27V12.14c0-1.14-1.31-1.63-1.93-.72Z"/>
  <path class="cls-1" d="M56.17,72.88L23.16,13.28c-.18-.33-.57-.45-.87-.27l-3.07,1.79,36.21,58.57.75-.48Z"/>
  <path class="cls-1" d="M57.58,73.33l.75-.38L30.2,9.25c-.16-.37-.57-.52-.9-.33l-2.48,1.44c-.33.19-.45.65-.27,1.01l31.02,61.96Z"/>
  <path class="cls-1" d="M66.7,73.36L102.91,14.8l-3.07-1.79c-.31-.18-.69-.06-.87.27l-33.01,59.61.75.48Z"/>
  <path class="cls-1" d="M95.57,11.37c.18-.36.06-.82-.27-1.01l-2.48-1.44c-.33-.19-.74-.04-.9.33l-28.12,63.69.75.38,31.02-61.96Z"/>
</svg>