<?xml version="1.0" encoding="UTF-8"?>
<svg id="Layer_1" data-name="Layer 1" xmlns="http://www.w3.org/2000/svg" viewBox="0 0 237.05 73.85">
  <defs>
    <style>
      .cls-1 {
        fill: #231f20;
      }
    </style>
  </defs>
  <path class="cls-1" d="M84.8,31.54c-2.31-2.78-6.19-4.17-11.63-4.18-2.55,0-4.56.19-6.06.58-.49.13-.68.71-.37,1.11l3.08,3.92c.17.22.45.3.72.24.71-.18,1.58-.27,2.61-.27,1.65,0,3.1.42,4.35,1.23,1.25.82,2.02,2.8,2.32,5.96l-18.79-.05c-1.06,0-1.6.57-1.6,1.7-.01,5.81,1.21,10.02,3.67,12.65s6.23,3.94,11.32,3.96c4.38.01,7.78-1.37,10.19-4.13,2.41-2.76,3.62-6.55,3.63-11.35s-1.14-8.59-3.45-11.37ZM78.09,50.95c-1.05,1.25-2.47,1.87-4.26,1.86-2.24,0-3.88-.66-4.9-1.97-1.02-1.31-1.53-2.99-1.53-5.05l12.41.03c-.1,2.17-.68,3.88-1.72,5.13Z"/>
  <path class="cls-1" d="M96.32,58.06c-1.14,0-1.71-.57-1.71-1.71V17.74c0-1.14.57-1.71,1.71-1.71h4.55c1.14,0,1.71.57,1.71,1.71v20.93c0,.76-.04,1.52-.12,2.28h.12l9.03-11.62c.61-.78,1.35-1.17,2.22-1.17h4.67c1.74,0,2.05.69.9,2.08l-8.49,10.24,9.87,15.45c.9,1.42.6,2.13-.9,2.13h-4.87c-.95,0-1.71-.47-2.27-1.42l-6.01-9.99-4.15,3.9v5.81c0,1.14-.57,1.71-1.71,1.71h-4.55Z"/>
  <path class="cls-1" d="M128.74,58.06c-1.14,0-1.71-.57-1.71-1.71v-26.48c0-1.14.57-1.71,1.71-1.71h4.55c1.14,0,1.71.57,1.71,1.71v26.48c0,1.14-.57,1.71-1.71,1.71h-4.55Z"/>
  <path class="cls-1" d="M145.91,58.06c-1.14,0-1.71-.57-1.71-1.71V22.72c0-.85.2-1.63.6-2.33l2.19-3.84c.42-.72.91-1.08,1.48-1.08h1.99c1.14,0,1.71.57,1.71,1.71v39.18c0,1.14-.57,1.71-1.71,1.71h-4.55Z"/>
  <path class="cls-1" d="M163.09,28.16h4.56c.94,0,1.71.77,1.71,1.71v26.48c0,.94-.77,1.71-1.71,1.71h-4.56c-.94,0-1.71-.77-1.71-1.71v-26.48c0-.94.77-1.71,1.71-1.71Z"/>
  <path class="cls-1" d="M180.25,58.06c-1.13,0-1.7-.57-1.7-1.71v-26.48c0-1.14.57-1.71,1.71-1.71h4.5c1.14,0,1.71.57,1.71,1.71v1.65c.57-1.21,1.53-2.17,2.88-2.88,1.35-.7,2.61-1.05,3.79-1.05,2.35,0,4.17.4,5.48,1.22,1.3.81,2.2,1.72,2.69,2.71h.12c1.68-1.64,3.2-2.7,4.56-3.19,1.36-.49,3.1-.74,5.23-.74,2.86,0,5.27.93,7.23,2.79,1.96,1.86,2.94,5.26,2.94,10.19v15.77c0,1.14-.57,1.71-1.71,1.71h-4.56c-1.14,0-1.71-.57-1.71-1.71v-13.72c0-4.14-.29-6.75-.87-7.83-.58-1.08-1.61-1.62-3.09-1.62-1.38,0-2.64.78-3.78,2.34-1.14,1.56-1.71,4.76-1.71,9.62v11.22c0,1.14-.57,1.71-1.71,1.71h-4.56c-1.14,0-1.71-.57-1.71-1.71v-13.72c0-4.14-.29-6.75-.88-7.83-.58-1.08-1.62-1.62-3.11-1.62-1.39,0-2.65.77-3.8,2.32s-1.72,4.76-1.72,9.64v11.22c0,1.14-.57,1.71-1.7,1.71h-4.52Z"/>
  <g>
    <path class="cls-1" d="M59.47,16.57l-18.81,27.31c-1.05,1.35-4.4,1.24-5.46-.18l-18.69-27.12c-.27-.39-.83-.18-.83.31v10.83c0,.51.15,1,.43,1.41l19.22,27.89v-11.15c1.21.69,3.85.99,5.24.03-2.24,1.32-5.24,3.78-5.24,11.11,1.06,1.42,4.28,1.35,5.34,0l19.22-27.89c.28-.4.43-.9.43-1.41v-10.83c0-.49-.56-.7-.83-.31Z"/>
    <path class="cls-1" d="M35.89,43.05l-14.22-25.68c-.08-.14-.24-.19-.38-.12l-1.32.77,15.6,25.23.32-.21Z"/>
    <path class="cls-1" d="M36.49,43.25l.32-.16-12.11-27.44c-.07-.16-.25-.22-.39-.14l-1.07.62c-.14.08-.2.28-.12.44l13.36,26.69Z"/>
    <path class="cls-1" d="M40.42,43.26l15.6-25.23-1.32-.77c-.13-.08-.3-.03-.38.12l-14.22,25.68.32.21Z"/>
    <path class="cls-1" d="M52.86,16.55c.08-.16.03-.35-.12-.44l-1.07-.62c-.14-.08-.32-.02-.39.14l-12.11,27.44.32.16,13.36-26.69Z"/>
  </g>
  <path class="cls-1" d="M178.3,15.46h-6.7c-.46,0-.85.34-.91.8l-1.1,8.47,4.06-1.9,2.95,1.9,3.45-8.48c.15-.38-.12-.79-.53-.79h-1.22Z"/>
  <path class="cls-1" d="M136.04,15.46h-6.7c-.46,0-.85.34-.91.8l-1.03,7.94c-.04.28.18.53.47.53h5.9c.35,0,.66-.21.79-.53l3.24-7.95c.15-.38-.12-.79-.53-.79h-1.22Z"/>
</svg>